<?xml version="1.0" encoding="UTF-8"?>
<svg version="1.1" xmlns="http://www.w3.org/2000/svg" width="512" height="512">
<path d="M0 0 C5.07459227 2.39889816 6.86676857 4.90892666 9 10 C9.38293459 12.52952565 9.66878517 15.07497758 9.875 17.625 C11.00058246 28.5779773 14.73160975 37.65952219 22 46 C22.680625 46.87205078 22.680625 46.87205078 23.375 47.76171875 C29.58105215 54.95362815 41.62454339 61.38289601 51.11547852 62.17700195 C66.02885874 62.67733402 66.02885874 62.67733402 80 58 C80.845625 57.57589844 81.69125 57.15179688 82.5625 56.71484375 C95.05413952 49.87871786 102.02779171 39.826577 106.83984375 26.7109375 C107.89268892 22.9760269 108.15332832 19.22423456 108.4375 15.375 C108.93118058 9.42614905 110.08862527 5.77151805 114.5625 1.625 C119.17734879 -0.55656488 122.97976607 -0.79997224 128 0 C131.69527184 1.74685578 133.47717274 3.28546941 135.875 6.5625 C140.54147906 20.82118601 134.27303594 38.01112559 128 51 C117.35245408 69.38425194 100.26697736 83.16186207 79.83227539 88.97753906 C58.38750033 94.35821894 36.77715652 91.06530567 17.73925781 80.06884766 C13.46914395 77.44468167 9.68763162 74.3791866 6 71 C5.36835938 70.43667969 4.73671875 69.87335938 4.0859375 69.29296875 C-9.91896965 56.12095255 -17.862013 37.12877723 -19.203125 18.12109375 C-19.29789757 12.6953641 -19.32466699 8.54371156 -16 4 C-11.13147728 -0.51228935 -6.35047031 -1.01194486 0 0 Z " fill="#9B9B9B" transform="translate(197,264)"/>
<path d="M0 0 C1.13243134 -0.01591187 2.26486267 -0.03182373 3.43161011 -0.04821777 C5.25814621 -0.0485199 5.25814621 -0.0485199 7.12158203 -0.04882812 C8.38849884 -0.05644165 9.65541565 -0.06405518 10.96072388 -0.07189941 C13.64584619 -0.08270598 16.33008884 -0.08692238 19.01513672 -0.08105469 C21.74052373 -0.07636759 24.46474052 -0.09002363 27.18994141 -0.12207031 C46.69868771 -0.34904374 62.52905114 -0.36049357 78.25439453 12.41992188 C79.08583984 13.04253906 79.91728516 13.66515625 80.77392578 14.30664062 C90.34364611 22.45974093 97.40658626 36.00206125 98.53656006 48.55435181 C98.64861605 52.08192212 98.67035281 55.59764843 98.65283203 59.12695312 C98.65570221 60.41051193 98.65857239 61.69407074 98.66152954 63.01652527 C98.66591883 65.71352148 98.6596277 68.41021685 98.64550781 71.10717773 C98.62833083 74.55484306 98.63833128 78.00181193 98.6562252 81.4494524 C98.66968686 84.75867485 98.66025954 88.06771093 98.65283203 91.37695312 C98.65890472 92.61032913 98.66497742 93.84370514 98.67123413 95.11445618 C98.65704941 96.83731087 98.65704941 96.83731087 98.64257812 98.5949707 C98.64019135 99.60183426 98.63780457 100.60869781 98.63534546 101.64607239 C98.06517708 105.79768655 96.32902603 108.44603708 93.25439453 111.23242188 C88.60031845 113.07466032 84.18393625 113.20055312 79.25439453 112.41992188 C75.31641237 110.45871337 72.89010004 107.46970769 71.25439453 103.41992188 C71.00283813 101.07676697 71.00283813 101.07676697 70.99902344 98.45874023 C70.99206451 97.47348862 70.98510559 96.488237 70.97793579 95.47312927 C70.9789328 94.41271927 70.97992981 93.35230927 70.98095703 92.25976562 C70.96065422 89.99869309 70.9398032 87.73762542 70.91845703 85.4765625 C70.89594115 81.92419332 70.8794187 78.37201713 70.87353516 74.81958008 C70.86394342 71.3826225 70.83007072 67.94652743 70.79345703 64.50976562 C70.80102524 62.94040504 70.80102524 62.94040504 70.80874634 61.33934021 C70.68636791 52.04494491 68.65171735 42.87473385 62.09814453 35.91992188 C56.01669466 30.97230164 48.99709117 28.30888449 41.21386719 28.27807617 C40.21247711 28.27104172 39.21108704 28.26400726 38.17935181 28.25675964 C36.56520889 28.25051323 36.56520889 28.25051323 34.91845703 28.24414062 C32.63459361 28.22094606 30.35073941 28.19682887 28.06689453 28.171875 C24.47015169 28.13674288 20.87374916 28.10740083 17.27685547 28.09399414 C13.80280547 28.07851476 10.32974529 28.0383092 6.85595703 27.99414062 C5.24788681 27.99700325 5.24788681 27.99700325 3.60733032 27.99992371 C-3.74049435 27.87967643 -7.41296988 26.85802062 -12.59716797 21.50976562 C-14.82935749 17.4477881 -14.23260061 12.90961679 -13.74560547 8.41992188 C-11.2553701 2.12880093 -6.52285851 0.0553722 0 0 Z " fill="#9B9B9B" transform="translate(341.74560546875,71.580078125)"/>
<path d="M0 0 C1.92533821 -0.00430527 1.92533821 -0.00430527 3.88957214 -0.00869751 C6.58656836 -0.0130868 9.28326372 -0.00679567 11.98022461 0.00732422 C15.42788994 0.0245012 18.87485881 0.01450075 22.32249928 -0.00339317 C25.63172172 -0.01685483 28.9407578 -0.00742751 32.25 0 C33.48337601 -0.00607269 34.71675201 -0.01214539 35.98750305 -0.0184021 C37.13607285 -0.00894562 38.28464264 0.00051086 39.46801758 0.01025391 C40.47488113 0.01264069 41.48174469 0.01502747 42.51911926 0.01748657 C46.67073343 0.58765495 49.31908395 2.323806 52.10546875 5.3984375 C53.9477072 10.05251358 54.07359999 14.46889578 53.29296875 19.3984375 C51.33176024 23.33641966 48.34275456 25.76273199 44.29296875 27.3984375 C41.94981384 27.6499939 41.94981384 27.6499939 39.33178711 27.65380859 C37.85390968 27.66424698 37.85390968 27.66424698 36.34617615 27.67489624 C34.75556114 27.67340073 34.75556114 27.67340073 33.1328125 27.671875 C30.87173997 27.69217781 28.6106723 27.71302884 26.34960938 27.734375 C22.79724019 27.75689088 19.245064 27.77341333 15.69262695 27.77929688 C12.25566938 27.78888861 8.81957431 27.82276132 5.3828125 27.859375 C4.33657211 27.85432953 3.29033173 27.84928406 2.21238708 27.84408569 C-7.08200822 27.96646412 -16.25221927 30.00111468 -23.20703125 36.5546875 C-28.15465149 42.63613737 -30.81806864 49.65574086 -30.84887695 57.43896484 C-30.85591141 58.44035492 -30.86294586 59.441745 -30.87019348 60.47348022 C-30.87435776 61.5495755 -30.87852203 62.62567078 -30.8828125 63.734375 C-30.90600707 66.01823842 -30.93012425 68.30209262 -30.95507812 70.5859375 C-30.99021024 74.18268034 -31.01955229 77.77908287 -31.03295898 81.37597656 C-31.04843837 84.85002656 -31.08864393 88.32308674 -31.1328125 91.796875 C-31.13090408 92.86892181 -31.12899567 93.94096863 -31.12702942 95.04550171 C-31.2472767 102.39332639 -32.26893251 106.06580191 -37.6171875 111.25 C-41.67916502 113.48218952 -46.21733633 112.88543264 -50.70703125 112.3984375 C-55.03546591 110.68509878 -56.62242142 108.48334842 -58.70703125 104.3984375 C-59.10144043 101.65823364 -59.10144043 101.65823364 -59.12695312 98.65283203 C-59.14286499 97.5204007 -59.15877686 96.38796936 -59.1751709 95.22122192 C-59.17537231 94.00353119 -59.17557373 92.78584045 -59.17578125 91.53125 C-59.18339478 90.26433319 -59.1910083 88.99741638 -59.19885254 87.69210815 C-59.20965911 85.00698584 -59.21387551 82.3227432 -59.20800781 79.63769531 C-59.20332071 76.9123083 -59.21697675 74.18809151 -59.24902344 71.46289062 C-59.47599687 51.95414432 -59.48744669 36.12378089 -46.70703125 20.3984375 C-46.08441406 19.56699219 -45.46179688 18.73554687 -44.8203125 17.87890625 C-33.35980557 4.42710976 -16.91709717 -0.08398277 0 0 Z " fill="#9B9B9B" transform="translate(130.70703125,71.6015625)"/>
<path d="M0 0 C3.93798216 1.96120851 6.36429449 4.95021419 8 9 C8.2515564 11.34315491 8.2515564 11.34315491 8.25537109 13.96118164 C8.26233002 14.94643326 8.26928894 15.93168488 8.27645874 16.9467926 C8.27546173 18.00720261 8.27446472 19.06761261 8.2734375 20.16015625 C8.29374031 22.42122878 8.31459134 24.68229645 8.3359375 26.94335938 C8.35845338 30.49572856 8.37497583 34.04790475 8.38085938 37.6003418 C8.39045111 41.03729937 8.42432382 44.47339444 8.4609375 47.91015625 C8.45589203 48.95639664 8.45084656 50.00263702 8.44564819 51.08058167 C8.56802662 60.37497697 10.60267718 69.54518802 17.15625 76.5 C23.23769987 81.44762024 30.25730336 84.11103739 38.04052734 84.1418457 C39.04191742 84.14888016 40.0433075 84.15591461 41.07504272 84.16316223 C42.68918564 84.16940865 42.68918564 84.16940865 44.3359375 84.17578125 C46.61980092 84.19897582 48.90365512 84.223093 51.1875 84.24804688 C54.78424284 84.28317899 58.38064537 84.31252104 61.97753906 84.32592773 C65.45158906 84.34140712 68.92464924 84.38161268 72.3984375 84.42578125 C74.00650772 84.42291862 74.00650772 84.42291862 75.64706421 84.41999817 C82.99488889 84.54024545 86.66736441 85.56190126 91.8515625 90.91015625 C94.08375202 94.97213377 93.48699514 99.51030508 93 104 C91.28666128 108.32843466 89.08491092 109.91539017 85 112 C82.25979614 112.39440918 82.25979614 112.39440918 79.25439453 112.41992188 C78.1219632 112.43583374 76.98953186 112.45174561 75.82278442 112.46813965 C74.60509369 112.46834106 73.38740295 112.46854248 72.1328125 112.46875 C70.86589569 112.47636353 69.59897888 112.48397705 68.29367065 112.49182129 C65.60854834 112.50262786 62.9243057 112.50684426 60.23925781 112.50097656 C57.5138708 112.49628946 54.78965401 112.5099455 52.06445312 112.54199219 C32.55570682 112.76896562 16.72534339 112.78041544 1 100 C0.16855469 99.37738281 -0.66289063 98.75476563 -1.51953125 98.11328125 C-11.08925158 89.96018094 -18.15219173 76.41786062 -19.28216553 63.86557007 C-19.39422152 60.33799975 -19.41595828 56.82227345 -19.3984375 53.29296875 C-19.40130768 52.00940994 -19.40417786 50.72585114 -19.40713501 49.40339661 C-19.4115243 46.70640039 -19.40523317 44.00970503 -19.39111328 41.31274414 C-19.3739363 37.86507881 -19.38393675 34.41810994 -19.40183067 30.97046947 C-19.41529233 27.66124703 -19.40586501 24.35221095 -19.3984375 21.04296875 C-19.40451019 19.80959274 -19.41058289 18.57621674 -19.4168396 17.3054657 C-19.40738312 16.1568959 -19.39792664 15.00832611 -19.38818359 13.82495117 C-19.38579681 12.81808762 -19.38341003 11.81122406 -19.38095093 10.77384949 C-18.81078255 6.62223532 -17.0746315 3.9738848 -14 1.1875 C-9.34592392 -0.65473845 -4.92954172 -0.78063124 0 0 Z " fill="#9B9B9B" transform="translate(91,328)"/>
<path d="M0 0 C4.32843466 1.71333872 5.91539017 3.91508908 8 8 C8.39440918 10.74020386 8.39440918 10.74020386 8.41992188 13.74560547 C8.44378967 15.44425247 8.44378967 15.44425247 8.46813965 17.17721558 C8.46834106 18.39490631 8.46854248 19.61259705 8.46875 20.8671875 C8.48017029 22.76756271 8.48017029 22.76756271 8.49182129 24.70632935 C8.50262786 27.39145166 8.50684426 30.0756943 8.50097656 32.76074219 C8.49628946 35.4861292 8.5099455 38.21034599 8.54199219 40.93554688 C8.76896562 60.44429318 8.78041544 76.27465661 -4 92 C-4.62648438 92.83273437 -5.25296875 93.66546875 -5.8984375 94.5234375 C-13.37815808 103.33782941 -25.64993111 109.87065257 -37 112 C-41.47120244 112.30435353 -45.93375845 112.30407765 -50.4140625 112.30078125 C-51.70186615 112.30506638 -52.9896698 112.3093515 -54.3164978 112.31376648 C-57.03135315 112.32119511 -59.74607835 112.32096062 -62.4609375 112.31567383 C-65.93219589 112.30986342 -69.40292342 112.32686353 -72.87409401 112.3500185 C-76.19993903 112.36831689 -79.52566744 112.36457061 -82.8515625 112.36328125 C-84.71574326 112.37709587 -84.71574326 112.37709587 -86.61758423 112.39118958 C-87.7758371 112.38496078 -88.93408997 112.37873199 -90.12744141 112.37231445 C-91.14335358 112.37294388 -92.15926575 112.3735733 -93.20596313 112.3742218 C-97.37362805 111.81602191 -100.01694675 110.08474841 -102.8125 107 C-104.65473845 102.34592392 -104.78063124 97.92954172 -104 93 C-102.03879149 89.06201784 -99.04978581 86.63570551 -95 85 C-92.65684509 84.7484436 -92.65684509 84.7484436 -90.03881836 84.74462891 C-88.56094093 84.73419052 -88.56094093 84.73419052 -87.0532074 84.72354126 C-85.46259239 84.72503677 -85.46259239 84.72503677 -83.83984375 84.7265625 C-81.57877122 84.70625969 -79.31770355 84.68540866 -77.05664062 84.6640625 C-73.50427144 84.64154662 -69.95209525 84.62502417 -66.3996582 84.61914062 C-62.96270063 84.60954889 -59.52660556 84.57567618 -56.08984375 84.5390625 C-55.04360336 84.54410797 -53.99736298 84.54915344 -52.91941833 84.55435181 C-43.62502303 84.43197338 -34.45481198 82.39732282 -27.5 75.84375 C-22.55237976 69.76230013 -19.88896261 62.74269664 -19.8581543 54.95947266 C-19.85111984 53.95808258 -19.84408539 52.9566925 -19.83683777 51.92495728 C-19.83059135 50.31081436 -19.83059135 50.31081436 -19.82421875 48.6640625 C-19.80102418 46.38019908 -19.776907 44.09634488 -19.75195312 41.8125 C-19.71682101 38.21575716 -19.68747896 34.61935463 -19.67407227 31.02246094 C-19.65859288 27.54841094 -19.61838732 24.07535076 -19.57421875 20.6015625 C-19.57612717 19.52951569 -19.57803558 18.45746887 -19.58000183 17.35293579 C-19.45975455 10.00511111 -18.43809874 6.33263559 -13.08984375 1.1484375 C-9.02786623 -1.08375202 -4.48969492 -0.48699514 0 0 Z " fill="#9B9B9B" transform="translate(432,328)"/>
<path d="M0 0 C4.54902436 2.28887752 6.06926661 4.54434707 8.10546875 9.30859375 C8.62710537 13.62036957 8.57902259 17.90780517 8.55151367 22.24902344 C8.54298885 24.30374941 8.5718293 26.35570316 8.60351562 28.41015625 C8.60287109 29.71726563 8.60222656 31.024375 8.6015625 32.37109375 C8.60434204 34.15193359 8.60434204 34.15193359 8.60717773 35.96875 C7.87316302 40.8550377 5.63317682 43.99912969 1.91796875 47.18359375 C-2.09227464 48.78769111 -5.63498489 48.99222465 -9.89453125 48.30859375 C-13.85075493 46.25721851 -16.62915461 44.14468022 -18.89453125 40.30859375 C-19.45033669 35.77416173 -19.36729234 31.22847964 -19.34057617 26.66455078 C-19.33208372 24.44729231 -19.36080814 22.23262795 -19.39257812 20.015625 C-19.39419093 18.59505285 -19.39361108 17.17447618 -19.390625 15.75390625 C-19.39340454 13.82828857 -19.39340454 13.82828857 -19.39624023 11.86376953 C-18.80819519 7.69680506 -17.52260859 5.55801619 -14.89453125 2.30859375 C-10.13726789 -0.86291516 -5.52751687 -2.01725873 0 0 Z " fill="#9B9B9B" transform="translate(218.89453125,178.69140625)"/>
<path d="M0 0 C3.41606428 2.27737619 4.81804679 4.28880712 6.8125 7.875 C7.34594727 11.3984375 7.34594727 11.3984375 7.37890625 15.25 C7.38820412 16.28133057 7.38820412 16.28133057 7.39768982 17.33349609 C7.4047551 18.77895705 7.40167164 20.22449994 7.38891602 21.66992188 C7.3750314 23.87002406 7.409178 26.06588014 7.44726562 28.265625 C7.44821688 29.67708436 7.44635766 31.088549 7.44140625 32.5 C7.44213135 33.77101562 7.44285645 35.04203125 7.44360352 36.3515625 C6.61658677 40.96877941 5.0772639 42.56558081 1.8125 45.875 C-2.24983768 48.56766061 -6.46455454 48.53916421 -11.1875 47.875 C-15.69804426 45.61972787 -17.98980704 43.36934912 -20.1875 38.875 C-20.57568359 35.64868164 -20.57568359 35.64868164 -20.5859375 32.03515625 C-20.58980469 30.72482422 -20.59367187 29.41449219 -20.59765625 28.06445312 C-20.59137207 27.38648682 -20.58508789 26.70852051 -20.57861328 26.01000977 C-20.56257194 23.94675265 -20.57847288 21.88546173 -20.59765625 19.82226562 C-20.59378906 18.51064453 -20.58992188 17.19902344 -20.5859375 15.84765625 C-20.58255371 14.65406494 -20.57916992 13.46047363 -20.57568359 12.23071289 C-20.08065158 7.95133234 -18.82332781 4.38935545 -15.609375 1.4140625 C-10.19597135 -1.54560211 -5.97623157 -2.1092582 0 0 Z " fill="#9A9A9A" transform="translate(305.1875,179.125)"/>
</svg>
